<?xml version="1.0" standalone="no"?>
<!DOCTYPE svg PUBLIC "-//W3C//DTD SVG 20010904//EN"
 "http://www.w3.org/TR/2001/REC-SVG-20010904/DTD/svg10.dtd">
<svg version="1.0" xmlns="http://www.w3.org/2000/svg"
 width="400.000000pt" height="400.000000pt" viewBox="0 0 400.000000 400.000000"
 preserveAspectRatio="xMidYMid meet">
<metadata>
Created by potrace 1.11, written by Peter Selinger 2001-2013
</metadata>
<g transform="translate(0.000000,400.000000) scale(0.100000,-0.100000)"
fill="#000000" stroke="none">
<path d="M2279 3504 c-22 -14 -34 -47 -89 -233 -36 -119 -65 -218 -66 -221 -1
-7 -42 -144 -66 -220 -11 -36 -21 -72 -23 -80 -3 -13 -259 -883 -320 -1085
-13 -44 -51 -172 -84 -285 -34 -113 -97 -326 -141 -475 -44 -148 -80 -280 -80
-291 0 -44 44 -79 126 -99 10 -3 47 -13 81 -22 60 -17 64 -17 96 0 29 16 36
28 56 95 12 42 33 113 47 157 30 100 163 549 174 590 14 51 308 1049 511 1731
49 165 89 308 89 317 0 48 -47 87 -120 101 -8 1 -39 10 -69 19 -67 21 -89 21
-122 1z"/>
<path d="M1064 3090 c-16 -10 -263 -252 -548 -538 l-519 -520 6 -38 c6 -34 60
-92 524 -557 285 -285 529 -524 543 -531 50 -26 63 -18 211 129 121 120 139
148 123 192 -5 13 -177 193 -383 399 l-374 374 374 374 c206 206 378 386 383
399 16 44 -2 72 -122 191 -151 151 -166 159 -218 126z"/>
<path d="M2875 3099 c-20 -5 -76 -54 -158 -137 -112 -114 -127 -133 -127 -163
0 -31 30 -63 382 -415 l381 -383 -377 -377 c-207 -208 -379 -388 -382 -401
-11 -43 5 -68 125 -187 148 -148 161 -156 211 -130 14 7 259 247 545 533 515
516 520 521 520 561 0 40 -6 45 -520 561 -286 286 -531 526 -545 533 -17 9
-35 10 -55 5z"/>
</g>
</svg>
